<?xml version="1.0"?>
<!-- Generated by SVGo -->
<svg width="305.752mm" height="115.252mm"
     viewBox="0.000 0.000 305.752 115.252"
     xmlns="http://www.w3.org/2000/svg" 
     xmlns:xlink="http://www.w3.org/1999/xlink">
<polygon points="296.752,5.001 297.065,5.013 297.377,5.050 297.685,5.111 297.988,5.196 298.282,5.305 298.567,5.436 298.841,5.590 299.103,5.764 299.349,5.959 299.580,6.172 299.793,6.403 299.988,6.649 300.162,6.911 300.316,7.185 300.447,7.470 300.556,7.764 300.641,8.067 300.702,8.375 300.739,8.687 300.752,9.001 300.752,106.251 300.739,106.565 300.702,106.877 300.641,107.185 300.556,107.488 300.447,107.782 300.316,108.067 300.162,108.341 299.988,108.603 299.793,108.849 299.580,109.080 299.349,109.293 299.103,109.488 298.841,109.662 298.567,109.816 298.282,109.947 297.988,110.056 297.685,110.141 297.377,110.202 297.065,110.239 296.752,110.252 9.001,110.251 8.687,110.239 8.375,110.202 8.067,110.141 7.764,110.056 7.470,109.947 7.185,109.816 6.911,109.662 6.649,109.488 6.403,109.293 6.172,109.080 5.959,108.849 5.764,108.603 5.590,108.341 5.436,108.067 5.305,107.782 5.196,107.488 5.111,107.185 5.050,106.877 5.013,106.565 5.000,106.251 5.001,9.001 5.013,8.687 5.050,8.375 5.111,8.067 5.196,7.764 5.305,7.470 5.436,7.185 5.590,6.911 5.764,6.649 5.959,6.403 6.172,6.172 6.403,5.959 6.649,5.764 6.911,5.590 7.185,5.436 7.470,5.305 7.764,5.196 8.067,5.111 8.375,5.050 8.687,5.013 9.001,5.000" style="fill:none;stroke-width:0.050000mm;stroke:black"/>
<polygon points="10.001,10.001 10.001,105.251 295.752,105.251 295.752,10.001" style="fill:none;stroke-width:0.050000mm;stroke:black"/>
</svg>
