<?xml version="1.0"?>
<!-- Generated by SVGo -->
<svg width="305.752mm" height="115.252mm"
     viewBox="0.000 0.000 305.752 115.252"
     xmlns="http://www.w3.org/2000/svg" 
     xmlns:xlink="http://www.w3.org/1999/xlink">
<polygon points="296.752,5.001 297.065,5.013 297.377,5.050 297.685,5.111 297.988,5.196 298.282,5.305 298.567,5.436 298.841,5.590 299.103,5.764 299.349,5.959 299.580,6.172 299.793,6.403 299.988,6.649 300.162,6.911 300.316,7.185 300.447,7.470 300.556,7.764 300.641,8.067 300.702,8.375 300.739,8.687 300.752,9.001 300.752,106.251 300.739,106.565 300.702,106.877 300.641,107.185 300.556,107.488 300.447,107.782 300.316,108.067 300.162,108.341 299.988,108.603 299.793,108.849 299.580,109.080 299.349,109.293 299.103,109.488 298.841,109.662 298.567,109.816 298.282,109.947 297.988,110.056 297.685,110.141 297.377,110.202 297.065,110.239 296.752,110.252 9.001,110.251 8.687,110.239 8.375,110.202 8.067,110.141 7.764,110.056 7.470,109.947 7.185,109.816 6.911,109.662 6.649,109.488 6.403,109.293 6.172,109.080 5.959,108.849 5.764,108.603 5.590,108.341 5.436,108.067 5.305,107.782 5.196,107.488 5.111,107.185 5.050,106.877 5.013,106.565 5.000,106.251 5.001,9.001 5.013,8.687 5.050,8.375 5.111,8.067 5.196,7.764 5.305,7.470 5.436,7.185 5.590,6.911 5.764,6.649 5.959,6.403 6.172,6.172 6.403,5.959 6.649,5.764 6.911,5.590 7.185,5.436 7.470,5.305 7.764,5.196 8.067,5.111 8.375,5.050 8.687,5.013 9.001,5.000" style="fill:none;stroke-width:0.050000mm;stroke:black"/>
<polygon points="145.876,88.726 145.876,93.426 99.101,93.426 99.101,90.196 92.351,90.196 92.351,93.426 91.526,93.426 91.526,96.226 92.351,96.226 92.351,102.495 94.076,102.495 94.076,103.696 97.376,103.696 97.376,102.495 99.101,102.495 99.101,98.025 145.876,98.025 145.876,102.726 159.876,102.726 159.876,98.025 206.651,98.025 206.651,102.495 208.376,102.495 208.376,103.696 211.676,103.696 211.676,102.495 213.401,102.495 213.401,96.226 214.226,96.226 214.226,93.426 213.401,93.426 213.401,90.196 206.651,90.196 206.651,93.426 159.876,93.426 159.876,88.726" style="fill:none;stroke-width:0.050000mm;stroke:black"/>
<polygon points="41.101,88.726 41.101,102.726 55.101,102.726 55.101,88.726" style="fill:none;stroke-width:0.050000mm;stroke:black"/>
<polygon points="64.913,88.726 64.913,102.726 78.913,102.726 78.913,88.726" style="fill:none;stroke-width:0.050000mm;stroke:black"/>
<polygon points="226.838,88.726 226.838,102.726 240.838,102.726 240.838,88.726" style="fill:none;stroke-width:0.050000mm;stroke:black"/>
<polygon points="250.650,88.726 250.650,102.726 264.651,102.726 264.651,88.726" style="fill:none;stroke-width:0.050000mm;stroke:black"/>
<polygon points="24.432,69.676 24.432,74.376 22.907,74.376 22.907,71.146 16.156,71.146 16.156,74.376 15.332,74.376 15.332,77.176 16.156,77.176 16.156,83.446 17.882,83.446 17.882,84.646 21.182,84.646 21.182,83.446 22.907,83.446 22.907,78.976 24.432,78.976 24.432,83.676 38.432,83.676 38.432,78.976 39.957,78.976 39.957,83.446 41.682,83.446 41.682,84.646 44.982,84.646 44.982,83.446 46.707,83.446 46.707,77.176 47.532,77.176 47.532,74.376 46.707,74.376 46.707,71.146 39.957,71.146 39.957,74.376 38.432,74.376 38.432,69.676" style="fill:none;stroke-width:0.050000mm;stroke:black"/>
<polygon points="262.557,69.676 262.557,74.376 261.032,74.376 261.032,71.146 254.282,71.146 254.282,74.376 253.457,74.376 253.457,77.176 254.282,77.176 254.282,83.446 256.006,83.446 256.006,84.646 259.306,84.646 259.306,83.446 261.032,83.446 261.032,78.976 262.557,78.976 262.557,83.676 276.557,83.676 276.557,78.976 278.082,78.976 278.082,83.446 279.807,83.446 279.807,84.646 283.107,84.646 283.107,83.446 284.832,83.446 284.832,77.176 285.657,77.176 285.657,74.376 284.832,74.376 284.832,71.146 278.082,71.146 278.082,74.376 276.557,74.376 276.557,69.676" style="fill:none;stroke-width:0.050000mm;stroke:black"/>
<polygon points="55.388,69.676 55.388,83.676 69.388,83.676 69.388,69.676" style="fill:none;stroke-width:0.050000mm;stroke:black"/>
<polygon points="74.438,69.676 74.438,83.676 88.438,83.676 88.438,69.676" style="fill:none;stroke-width:0.050000mm;stroke:black"/>
<polygon points="93.488,69.676 93.488,83.676 107.488,83.676 107.488,69.676" style="fill:none;stroke-width:0.050000mm;stroke:black"/>
<polygon points="112.538,69.676 112.538,83.676 126.538,83.676 126.538,69.676" style="fill:none;stroke-width:0.050000mm;stroke:black"/>
<polygon points="131.588,69.676 131.588,83.676 145.588,83.676 145.588,69.676" style="fill:none;stroke-width:0.050000mm;stroke:black"/>
<polygon points="150.638,69.676 150.638,83.676 164.638,83.676 164.638,69.676" style="fill:none;stroke-width:0.050000mm;stroke:black"/>
<polygon points="169.688,69.676 169.688,83.676 183.688,83.676 183.688,69.676" style="fill:none;stroke-width:0.050000mm;stroke:black"/>
<polygon points="188.738,69.676 188.738,83.676 202.738,83.676 202.738,69.676" style="fill:none;stroke-width:0.050000mm;stroke:black"/>
<polygon points="207.788,69.676 207.788,83.676 221.788,83.676 221.788,69.676" style="fill:none;stroke-width:0.050000mm;stroke:black"/>
<polygon points="226.838,69.676 226.838,83.676 240.838,83.676 240.838,69.676" style="fill:none;stroke-width:0.050000mm;stroke:black"/>
<polygon points="267.319,50.626 267.319,55.326 265.794,55.326 265.794,52.096 259.044,52.096 259.044,55.326 258.219,55.326 258.219,58.126 259.044,58.126 259.044,64.395 260.768,64.395 260.768,65.596 264.069,65.596 264.069,64.395 265.794,64.395 265.794,59.926 267.319,59.926 267.319,64.626 281.319,64.626 281.319,59.926 282.844,59.926 282.844,64.395 284.569,64.395 284.569,65.596 287.869,65.596 287.869,64.395 289.594,64.395 289.594,58.126 290.419,58.126 290.419,55.326 289.594,55.326 289.594,52.096 282.844,52.096 282.844,55.326 281.319,55.326 281.319,50.626" style="fill:none;stroke-width:0.050000mm;stroke:black"/>
<polygon points="19.669,50.626 19.669,64.626 33.669,64.626 33.669,50.626" style="fill:none;stroke-width:0.050000mm;stroke:black"/>
<polygon points="45.863,50.626 45.863,64.626 59.863,64.626 59.863,50.626" style="fill:none;stroke-width:0.050000mm;stroke:black"/>
<polygon points="64.913,50.626 64.913,64.626 78.913,64.626 78.913,50.626" style="fill:none;stroke-width:0.050000mm;stroke:black"/>
<polygon points="83.963,50.626 83.963,64.626 97.963,64.626 97.963,50.626" style="fill:none;stroke-width:0.050000mm;stroke:black"/>
<polygon points="103.013,50.626 103.013,64.626 117.013,64.626 117.013,50.626" style="fill:none;stroke-width:0.050000mm;stroke:black"/>
<polygon points="122.063,50.626 122.063,64.626 136.063,64.626 136.063,50.626" style="fill:none;stroke-width:0.050000mm;stroke:black"/>
<polygon points="141.113,50.626 141.113,64.626 155.113,64.626 155.113,50.626" style="fill:none;stroke-width:0.050000mm;stroke:black"/>
<polygon points="160.163,50.626 160.163,64.626 174.163,64.626 174.163,50.626" style="fill:none;stroke-width:0.050000mm;stroke:black"/>
<polygon points="179.213,50.626 179.213,64.626 193.213,64.626 193.213,50.626" style="fill:none;stroke-width:0.050000mm;stroke:black"/>
<polygon points="198.263,50.626 198.263,64.626 212.263,64.626 212.263,50.626" style="fill:none;stroke-width:0.050000mm;stroke:black"/>
<polygon points="217.313,50.626 217.313,64.626 231.313,64.626 231.313,50.626" style="fill:none;stroke-width:0.050000mm;stroke:black"/>
<polygon points="236.363,50.626 236.363,64.626 250.363,64.626 250.363,50.626" style="fill:none;stroke-width:0.050000mm;stroke:black"/>
<polygon points="17.288,31.576 17.288,45.576 31.288,45.576 31.288,31.576" style="fill:none;stroke-width:0.050000mm;stroke:black"/>
<polygon points="41.101,31.576 41.101,45.576 55.101,45.576 55.101,31.576" style="fill:none;stroke-width:0.050000mm;stroke:black"/>
<polygon points="60.151,31.576 60.151,45.576 74.151,45.576 74.151,31.576" style="fill:none;stroke-width:0.050000mm;stroke:black"/>
<polygon points="79.201,31.576 79.201,45.576 93.201,45.576 93.201,31.576" style="fill:none;stroke-width:0.050000mm;stroke:black"/>
<polygon points="98.251,31.576 98.251,45.576 112.251,45.576 112.251,31.576" style="fill:none;stroke-width:0.050000mm;stroke:black"/>
<polygon points="117.301,31.576 117.301,45.576 131.301,45.576 131.301,31.576" style="fill:none;stroke-width:0.050000mm;stroke:black"/>
<polygon points="136.351,31.576 136.351,45.576 150.351,45.576 150.351,31.576" style="fill:none;stroke-width:0.050000mm;stroke:black"/>
<polygon points="155.401,31.576 155.401,45.576 169.401,45.576 169.401,31.576" style="fill:none;stroke-width:0.050000mm;stroke:black"/>
<polygon points="174.451,31.576 174.451,45.576 188.451,45.576 188.451,31.576" style="fill:none;stroke-width:0.050000mm;stroke:black"/>
<polygon points="193.501,31.576 193.501,45.576 207.501,45.576 207.501,31.576" style="fill:none;stroke-width:0.050000mm;stroke:black"/>
<polygon points="212.551,31.576 212.551,45.576 226.551,45.576 226.551,31.576" style="fill:none;stroke-width:0.050000mm;stroke:black"/>
<polygon points="231.601,31.576 231.601,45.576 245.601,45.576 245.601,31.576" style="fill:none;stroke-width:0.050000mm;stroke:black"/>
<polygon points="250.651,31.576 250.651,45.576 264.651,45.576 264.651,31.576" style="fill:none;stroke-width:0.050000mm;stroke:black"/>
<polygon points="274.463,31.576 274.463,45.576 288.463,45.576 288.463,31.576" style="fill:none;stroke-width:0.050000mm;stroke:black"/>
<polygon points="12.525,12.525 12.525,26.526 26.526,26.526 26.526,12.525" style="fill:none;stroke-width:0.050000mm;stroke:black"/>
<polygon points="31.576,12.525 31.576,26.526 45.576,26.526 45.576,12.525" style="fill:none;stroke-width:0.050000mm;stroke:black"/>
<polygon points="50.626,12.525 50.626,26.526 64.626,26.526 64.626,12.525" style="fill:none;stroke-width:0.050000mm;stroke:black"/>
<polygon points="69.676,12.525 69.676,26.526 83.676,26.526 83.676,12.525" style="fill:none;stroke-width:0.050000mm;stroke:black"/>
<polygon points="88.726,12.525 88.726,26.526 102.726,26.526 102.726,12.525" style="fill:none;stroke-width:0.050000mm;stroke:black"/>
<polygon points="107.775,12.525 107.775,26.526 121.775,26.526 121.775,12.525" style="fill:none;stroke-width:0.050000mm;stroke:black"/>
<polygon points="126.825,12.525 126.825,26.526 140.826,26.526 140.826,12.525" style="fill:none;stroke-width:0.050000mm;stroke:black"/>
<polygon points="145.876,12.525 145.876,26.526 159.876,26.526 159.876,12.525" style="fill:none;stroke-width:0.050000mm;stroke:black"/>
<polygon points="164.926,12.525 164.926,26.526 178.926,26.526 178.926,12.525" style="fill:none;stroke-width:0.050000mm;stroke:black"/>
<polygon points="183.976,12.525 183.976,26.526 197.976,26.526 197.976,12.525" style="fill:none;stroke-width:0.050000mm;stroke:black"/>
<polygon points="203.026,12.525 203.026,26.526 217.026,26.526 217.026,12.525" style="fill:none;stroke-width:0.050000mm;stroke:black"/>
<polygon points="222.076,12.525 222.076,26.526 236.076,26.526 236.076,12.525" style="fill:none;stroke-width:0.050000mm;stroke:black"/>
<polygon points="241.126,12.525 241.126,26.526 255.126,26.526 255.126,12.525" style="fill:none;stroke-width:0.050000mm;stroke:black"/>
<polygon points="260.176,12.525 260.176,26.526 274.176,26.526 274.176,12.525" style="fill:none;stroke-width:0.050000mm;stroke:black"/>
<polygon points="279.226,12.525 279.226,26.526 293.226,26.526 293.226,12.525" style="fill:none;stroke-width:0.050000mm;stroke:black"/>
</svg>
